<?xml version="1.0" encoding="UTF-8" standalone="no"?>
<!DOCTYPE svg PUBLIC "-//W3C//DTD SVG 1.1//EN" "http://www.w3.org/Graphics/SVG/1.1/DTD/svg11.dtd">
<svg width="100%" height="100%" viewBox="0 0 3500 1750" version="1.1" xmlns="http://www.w3.org/2000/svg" xmlns:xlink="http://www.w3.org/1999/xlink" xml:space="preserve" xmlns:serif="http://www.serif.com/" style="fill-rule:evenodd;clip-rule:evenodd;stroke-linejoin:round;stroke-miterlimit:2;">
    <g id="SIngle-Colour-White" serif:id="SIngle Colour White">
        <g transform="matrix(2.456152,0,0,2.470511,-24816.993185,-390.925398)">
            <g transform="matrix(1.115154,0,0,1.115154,-2065.810357,227.947144)">
                <g transform="matrix(1,0,0,1,-9.113825,0)">
                    <g transform="matrix(1,0,0,1,647.973304,-273.314426)">
                        <g>
                            <g transform="matrix(0.088749,0,0,0.088749,8741.891444,265.991553)">
                                <path d="M19480.727,4519.198C19103.865,4216.133 19039.774,3975.856 19467.831,3757.54C19956.318,3508.405 19316.995,3197.98 19340.262,2934.848C19361.953,2689.549 19779.358,2431.692 19663.888,1924.969L19400.028,1924.969C19399.656,2444.682 18965.817,2608.274 18890,2842.569C18808.672,3093.896 19359.669,3527.405 18831,3673C18056.053,3886.42 18024.496,4213.599 17931,4521.675L19480.727,4519.198Z" style="fill:rgb(35,31,32);"/>
                            </g>
                            <g transform="matrix(0.124767,0,0,0.124767,5464.843815,201.991231)">
                                <path d="M39636.318,1931.337C39765.343,1379.343 40614.93,1442.198 40614.707,1915.304C40300.504,1893.245 39976.656,1874.99 39636.318,1931.337Z" style="fill:rgb(35,31,32);"/>
                            </g>
                        </g>
                        <g transform="matrix(0.215217,0,0,0.215217,1210.121273,68.905742)">
                            <path d="M42396.021,1835.222C42381.99,1838.336 42368.07,1829.473 42364.955,1815.442C42361.84,1801.411 42370.703,1787.49 42384.735,1784.376C42776.149,1697.492 43276.334,1668.462 43667.748,1784.837C43681.525,1788.933 43689.384,1803.444 43685.288,1817.22C43681.192,1830.997 43666.682,1838.857 43652.905,1834.76C43269.462,1720.755 42779.464,1750.107 42396.021,1835.222Z" style="fill:rgb(35,31,32);"/>
                        </g>
                    </g>
                </g>
            </g>
        </g>
        <g transform="matrix(1.324402,0,0,1.332144,-49071.327486,-6272.593196)">
            <g transform="matrix(1.05191,0,0,1,-1966.817298,0)">
                <g transform="matrix(382.807991,0,0,382.807991,39522.563736,5365.479297)">
                </g>
                <text x="37888.897px" y="5365.479px" style="font-family:'Satoshi-Bold', 'Satoshi';font-weight:700;font-size:382.808px;fill:rgb(35,31,32);">V<tspan x="38162.902px 38462.551px 38699.413px 38966.145px 39295.559px " y="5365.479px 5365.479px 5365.479px 5365.479px 5365.479px ">OYAGE</tspan></text>
            </g>
        </g>
        <g transform="matrix(0.238823,0,0,0.233597,-1844.901421,-1737.288001)">
            <g transform="matrix(1.05191,0,0,1,-764.595542,0)">
                <g transform="matrix(1096.225061,0,0,1096.225061,19232.197898,12807.650649)">
                </g>
                <text x="14729.219px" y="12807.651px" style="font-family:'Satoshi-Regular', 'Satoshi';font-size:1096.225px;fill:rgb(35,31,32);">V<tspan x="15486.71px 15811.193px 16483.179px 17266.41px 18028.287px 18615.023px " y="12807.651px 12807.651px 12807.651px 12807.651px 12807.651px 12807.651px ">ISUALS</tspan></text>
            </g>
        </g>
    </g>
</svg>
